# xmcd
#
# Track frame offsets: 
#        150
#        23639
#        44860
#        68276
#        85371
#        107023
#        136496
#
# Disc length: 1940 seconds
#
# Revision: 0
# Processed by: cddbd v1.5.2PL0 Copyright (c) Steve Scherf et al.
# Submitted via: ExactAudioCopy v0.95a5
#
DISCID=58079207
DTITLE=Mundo do bebê - Mundo do bebê
DYEAR=2008
DGENRE=A Cappella
TTITLE0=Castelinhos de areia
TTITLE1=Nascer
TTITLE2=Acordar sorrindo
TTITLE3=Sonata dó maior Nº2
TTITLE4=Mundo lindo
TTITLE5=Solzinho gostoso
TTITLE6=Um presente de natal
EXTD=
EXTT0=
EXTT1=
EXTT2=
EXTT3=
EXTT4=
EXTT5=
EXTT6=
PLAYORDER=
